<svg xmlns="http://www.w3.org/2000/svg" width="16" height="16" viewBox="0 0 16 16">
  <path id="email" d="M15.971,12.429V6.947a5,5,0,0,0-.1-1.376,2.567,2.567,0,0,0-.489-.92,4.315,4.315,0,0,0-.949-.759L9.8.767A4.218,4.218,0,0,0,8.517.059a2.26,2.26,0,0,0-1.1.02A3.874,3.874,0,0,0,6.232.746L1.617,3.862a4.59,4.59,0,0,0-1.034.829,2.511,2.511,0,0,0-.461.941A4.482,4.482,0,0,0,.028,6.886v5.462A5.559,5.559,0,0,0,.235,14.5a1.024,1.024,0,0,0,.047.111A2.376,2.376,0,0,0,1.3,15.7a.428.428,0,0,0,.094.051A4.387,4.387,0,0,0,2.858,16a3.418,3.418,0,0,0,.461-.03h9.288a4.5,4.5,0,0,0,2-.223A.428.428,0,0,0,14.7,15.7a2.376,2.376,0,0,0,1.015-1.082c.019-.04.028-.071.047-.111a5.3,5.3,0,0,0,.207-2.074m-14.5-6.4a1.072,1.072,0,0,1,.141-.3,2.972,2.972,0,0,1,.705-.546L7,2.011c.019-.01.028-.02.047-.03a2.917,2.917,0,0,1,.743-.445,1.034,1.034,0,0,1,.338-.02,3.027,3.027,0,0,1,.865.5l4.728,3.2a2.7,2.7,0,0,1,.62.475.9.9,0,0,1,.16.273c.009.061.019.111.028.162L10.068,9.344c-.028.02-.047.03-.075.051l-1,.718a2.773,2.773,0,0,1-.78.486.955.955,0,0,1-.357.03,3.311,3.311,0,0,1-.9-.546l-5.5-3.965a.315.315,0,0,0,.019-.091m-.038,6.4v-4.5l3.036,2.185L1.438,13.38a4.015,4.015,0,0,1,0-.951m11.243,2.023-9.447.01a3.02,3.02,0,0,1-.8-.01l3.234-3.48.461.334a4.322,4.322,0,0,0,1.335.769,2.215,2.215,0,0,0,1.147-.02,3.89,3.89,0,0,0,1.213-.718l.508-.364,3.234,3.48a3.226,3.226,0,0,1-.884,0m1.88-1.072-3.036-3.267,3.036-2.185.009,4.592a3.758,3.758,0,0,1-.009.86" transform="translate(0 0)" fill="#fff"/>
</svg>