<svg width="853" height="228" viewBox="0 0 853 228" fill="none" xmlns="http://www.w3.org/2000/svg">
<path fill-rule="evenodd" clip-rule="evenodd" d="M181.41 145.11L170.83 121.19L166 145.11L150.36 224H124.83L159.79 54.95H162.55L209.01 146.26L222.81 176.85L236.61 146.26L282.15 54.95H284.68L321.02 224H295.72L278.7 145.11L273.64 121.19L264.44 145.11L223.5 224H222.12L181.41 145.11ZM405.552 54.72L486.972 224H457.302L442.812 190.88H365.5L365.5 190.88H346L360.944 200.842L350.812 224H322.062L403.022 54.72H405.552ZM394.052 126.71L375.652 167.65H432.692L414.522 126.94L404.632 103.71H404.172L394.052 126.71ZM585.543 224L551.503 160.06C544.45 160.367 538.163 160.52 532.643 160.52H526.203V224H501.133V54.95H539.543C559.017 54.95 575.04 59.0133 587.613 67.14C600.187 75.1133 606.473 88.1466 606.473 106.24C606.473 117.587 603.79 127.4 598.423 135.68C593.21 143.807 585.39 150.093 574.963 154.54L615.213 224H585.543ZM542.533 139.59C557.56 139.59 567.833 136.37 573.353 129.93C579.027 123.337 581.863 115.517 581.863 106.47C581.863 86.3833 568.447 76.34 541.613 76.34H526.203L509 76.3401L526.203 86.1706V139.59H542.533Z" fill="#FF7698"/>
<path fill-rule="evenodd" clip-rule="evenodd" d="M669.973 54.95H644.213V224H669.973V54.95ZM852.121 224L770.701 54.72H768.171L687.211 224H715.961L726.123 200.773L711.283 190.88H730.783L730.783 190.88H807.961L822.451 224H852.121ZM740.801 167.65L759.201 126.71L769.321 103.71H769.781L779.671 126.94L797.841 167.65H740.801Z" fill="#FFABC0"/>
<path d="M7.13889 226.125C7.13889 226.125 3.13889 222.125 18.6389 217.125C34.1389 212.125 44 213.333 51 210C58 206.667 73.5389 198.225 75.1389 192.625C76.7389 187.025 74.1389 179.625 72.6389 176.625C71.1389 173.625 69.1389 172.625 63.6389 171.125C58.1389 169.625 39.6389 176.125 37.1389 176.625C34.6389 177.125 29.8672 175.826 27.1389 172.625C23.3392 168.167 27.1389 157.625 27.1389 157.625C26.3056 157.792 24.0389 157.825 21.6389 156.625C19.2389 155.425 18.6389 151.792 18.6389 150.125C18.6389 148.458 20.6389 147.625 20.6389 147.625L14.6389 145.125C13.3056 144.458 11.0389 142.725 12.6389 141.125C14.6389 139.125 18.6389 137.625 18.6389 134.125C18.6389 131.325 12.9722 128.958 10.1389 128.125C7.30556 127.292 1.97982 125.604 4.13889 123.625C10.1389 118.125 14.6389 111.125 14.6389 111.125C15.8056 109.125 17.8824 106.206 18.1389 102.625C18.3825 99.2237 17.5701 97.2203 16.1389 94.1251C14.3341 90.2219 11.4832 89.23 9.13889 85.6251C7.32922 82.8423 6.3504 81.2155 5.13889 78.1251C3.39181 73.6684 3.1079 70.8889 2.63889 66.1251C2.06463 60.2922 1.34767 56.7058 3.13889 51.1251C4.28675 47.5488 5.32634 45.5847 7.63889 42.6251C9.76587 39.903 11.2042 38.4476 14.1389 36.6251C16.1432 35.3803 17.3597 34.735 19.6389 34.1251C23.2228 33.166 26.3659 33.3715 30 32.625C34.9619 31.6058 45.3969 20.3487 58.1389 18.1251C64.8713 16.9502 71.7778 17.1251 75.6389 18.1251C79.5 19.1251 90.6389 23.6251 90.6389 23.6251C90.6389 23.6251 95.5083 24.913 98.1389 23.6251C100.631 22.4047 101.118 20.4463 102.639 18.1251C104.314 15.5687 104.351 13.6036 106.139 11.1251C107.916 8.66175 109.472 6.79173 111.639 5.62507C113.806 4.4584 116.892 2.55493 120.639 2.12507C123.362 1.81267 126.278 2.12513 127.639 2.62507C129 3.125 132.83 5.24112 135.639 7.62507C138.062 9.68188 139.215 11.0951 141.139 13.6251C144.734 18.3518 146.654 21.3751 148.139 27.1251C149.799 33.553 149.936 37.7341 148.139 44.1251C147.027 48.0769 146.023 50.2832 143.639 53.6251C142.113 55.7636 141.075 56.8495 139.139 58.6251C137.498 60.1299 136.585 61.0441 134.639 62.1251C132.641 63.2347 131.371 63.6347 129.139 64.1251C125.515 64.921 123.08 65.5105 119.639 64.1251C116.809 62.9861 115.494 61.5458 113.639 59.1251C112.045 57.0459 111.636 55.5475 110.639 53.1251C109.698 50.8412 109.485 49.4454 108.639 47.1251C107.409 43.7526 106.48 41.9551 105.139 38.6251C104.746 37.6497 104.465 37.1246 104.139 36.1251C103.222 33.3162 102.387 31.4827 103.139 28.6251C103.884 25.7925 105.167 24.1957 107.639 22.6251C110 21.125 111 20.6309 113.639 20.1251C115.94 19.6839 117.309 19.8754 119.639 20.1251C121.619 20.3372 122.788 20.3915 124.639 21.1251C127.163 22.125 126.936 22.1097 128.139 23.1251C129.916 24.625 131.139 27.1251 131.139 27.1251" stroke="url(#paint0_linear_15_95)" stroke-width="3.5" stroke-linecap="round"/>
<defs>
<linearGradient id="paint0_linear_15_95" x1="75.718" y1="2" x2="75.718" y2="226.125" gradientUnits="userSpaceOnUse">
<stop stop-color="#FF7698"/>
<stop offset="0.5" stop-color="#FFBAC5"/>
<stop offset="1" stop-color="#FFC9C9"/>
</linearGradient>
</defs>
</svg>
